<svg aria-hidden="true" style="position: absolute; width: 0; height: 0; overflow: hidden;" version="1.1" xmlns="http://www.w3.org/2000/svg" xmlns:xlink="http://www.w3.org/1999/xlink">
<defs>
<symbol id="icon-folder-add" viewBox="0 0 32 32">
<path d="M26 24h-3v-1h3v-3h1v3h3v1h-3v3h-1v-3zM21.022 27h-19.029c-1.094 0-1.993-0.891-1.993-1.991v-11.009h29v3.498c-0.77-0.321-1.614-0.498-2.5-0.498-3.59 0-6.5 2.91-6.5 6.5 0 1.289 0.375 2.49 1.022 3.5v0 0zM0 13v-6.009c0-1.101 0.897-1.991 2.003-1.991h10.997l2 4h11.994c1.109 0 2.006 0.893 2.006 1.995v2.005h-29zM26.5 29c3.038 0 5.5-2.462 5.5-5.5s-2.462-5.5-5.5-5.5c-3.038 0-5.5 2.462-5.5 5.5s2.462 5.5 5.5 5.5v0z"></path>
</symbol>
<symbol id="icon-document-edit" viewBox="0 0 32 32">
<path d="M26.443 12.15l-2.6-2.6-11.292 11.294 2.606 2.606 11.286-11.3zM27.15 11.443l1.729-1.731c0.39-0.39 0.387-1.025-0.005-1.416l-1.18-1.177c-0.393-0.392-1.025-0.395-1.417-0.003l-1.727 1.728 2.599 2.599zM11.904 21.611l-0.64 3.113 3.135-0.617-2.495-2.495zM22 18v10.003c0 1.107-0.894 1.997-1.997 1.997h-15.005c-1.107 0-1.997-0.899-1.997-2.007v-22.985c0-1.109 0.899-2.007 2.009-2.007h9.991v6.002c0 1.111 0.898 1.998 2.006 1.998h3.994l4.58-4.58c0.793-0.793 2.051-0.788 2.83-0.010l1.18 1.179c0.776 0.776 0.775 2.046-0.010 2.83l-7.58 7.58zM16 3v5.997c0 0.554 0.451 1.003 0.991 1.003h5.009l-6-7z"></path>
</symbol>
<symbol id="icon-bin" viewBox="0 0 32 32">
<path d="M4 10v20c0 1.1 0.9 2 2 2h18c1.1 0 2-0.9 2-2v-20h-22zM10 28h-2v-14h2v14zM14 28h-2v-14h2v14zM18 28h-2v-14h2v14zM22 28h-2v-14h2v14z"></path>
<path d="M26.5 4h-6.5v-2.5c0-0.825-0.675-1.5-1.5-1.5h-7c-0.825 0-1.5 0.675-1.5 1.5v2.5h-6.5c-0.825 0-1.5 0.675-1.5 1.5v2.5h26v-2.5c0-0.825-0.675-1.5-1.5-1.5zM18 4h-6v-1.975h6v1.975z"></path>
</symbol>
<symbol id="icon-plus" viewBox="0 0 32 32">
<path d="M31 12h-11v-11c0-0.552-0.448-1-1-1h-6c-0.552 0-1 0.448-1 1v11h-11c-0.552 0-1 0.448-1 1v6c0 0.552 0.448 1 1 1h11v11c0 0.552 0.448 1 1 1h6c0.552 0 1-0.448 1-1v-11h11c0.552 0 1-0.448 1-1v-6c0-0.552-0.448-1-1-1z"></path>
</symbol>
<symbol id="icon-cancel-circle" viewBox="0 0 32 32">
<path d="M16 0c-8.837 0-16 7.163-16 16s7.163 16 16 16 16-7.163 16-16-7.163-16-16-16zM16 29c-7.18 0-13-5.82-13-13s5.82-13 13-13 13 5.82 13 13-5.82 13-13 13z"></path>
<path d="M21 8l-5 5-5-5-3 3 5 5-5 5 3 3 5-5 5 5 3-3-5-5 5-5z"></path>
</symbol>
<symbol id="icon-cross" viewBox="0 0 32 32">
<path d="M31.708 25.708c-0-0-0-0-0-0l-9.708-9.708 9.708-9.708c0-0 0-0 0-0 0.105-0.105 0.18-0.227 0.229-0.357 0.133-0.356 0.057-0.771-0.229-1.057l-4.586-4.586c-0.286-0.286-0.702-0.361-1.057-0.229-0.13 0.048-0.252 0.124-0.357 0.228 0 0-0 0-0 0l-9.708 9.708-9.708-9.708c-0-0-0-0-0-0-0.105-0.104-0.227-0.18-0.357-0.228-0.356-0.133-0.771-0.057-1.057 0.229l-4.586 4.586c-0.286 0.286-0.361 0.702-0.229 1.057 0.049 0.13 0.124 0.252 0.229 0.357 0 0 0 0 0 0l9.708 9.708-9.708 9.708c-0 0-0 0-0 0-0.104 0.105-0.18 0.227-0.229 0.357-0.133 0.355-0.057 0.771 0.229 1.057l4.586 4.586c0.286 0.286 0.702 0.361 1.057 0.229 0.13-0.049 0.252-0.124 0.357-0.229 0-0 0-0 0-0l9.708-9.708 9.708 9.708c0 0 0 0 0 0 0.105 0.105 0.227 0.18 0.357 0.229 0.356 0.133 0.771 0.057 1.057-0.229l4.586-4.586c0.286-0.286 0.362-0.702 0.229-1.057-0.049-0.13-0.124-0.252-0.229-0.357z"></path>
</symbol>

<symbol id="icon-minus" viewBox="0 0 32 32">
<path d="M1 12h30c0.553 0 1 0.448 1 1v6c0 0.553-0.447 1-1 1h-30c-0.552 0-1-0.447-1-1v-6c0-0.552 0.448-1 1-1z"></path>
</symbol>


</defs>
</svg>
